<svg xmlns="http://www.w3.org/2000/svg" width="839.394" height="502.23" viewBox="0 0 839.394 502.23"><g transform="translate(-41.564 31.222)"><g transform="translate(41.564 -31.222)"><path d="M222.892,590.154c-168.766-123.781-76.78-200.85-4.736-215.2S270.512,271.4,322.391,224.159c33.727-30.712,136.445-57.255,255.244,12s265.67,65.451,321.149,101.622C969.3,383.756,972.365,491,924.573,541.48c-52.362,55.31-73.312,53.482-73.312,53.482Z" transform="translate(-127.438 -92.738)" fill="#f4f2ff"/><g transform="translate(67.364 118.787)"><rect width="194.22" height="278.031" transform="translate(1.278 1.279)" fill="#fff"/><path d="M587.824,547.606H391.047V267.02H587.823V547.606ZM393.6,545.051H585.267V269.575H393.6Z" transform="translate(-391.047 -267.02)" fill="#b0a6e2"/><path d="M724.483,548.413h-119.5a2.33,2.33,0,0,1-2.323-2.323v-.311a2.33,2.33,0,0,1,2.323-2.324h119.5a2.33,2.33,0,0,1,2.323,2.324v.311A2.331,2.331,0,0,1,724.483,548.413Z" transform="translate(-548.587 -472.814)" fill="#b0a6e2" opacity="0.7"/><path d="M724.483,583.181h-119.5a2.33,2.33,0,0,1-2.323-2.323v-.311a2.33,2.33,0,0,1,2.323-2.323h119.5a2.33,2.33,0,0,1,2.323,2.323v.311A2.331,2.331,0,0,1,724.483,583.181Z" transform="translate(-548.587 -498.697)" fill="#b0a6e2" opacity="0.7"/><path d="M724.483,683.716h-119.5a2.33,2.33,0,0,1-2.323-2.323v-.311a2.33,2.33,0,0,1,2.323-2.323h119.5a2.33,2.33,0,0,1,2.323,2.323v.311A2.331,2.331,0,0,1,724.483,683.716Z" transform="translate(-548.587 -573.541)" fill="#b0a6e2" opacity="0.7"/><path d="M724.483,718.483h-119.5a2.33,2.33,0,0,1-2.323-2.323v-.311a2.33,2.33,0,0,1,2.323-2.323h119.5a2.33,2.33,0,0,1,2.323,2.323v.311A2.331,2.331,0,0,1,724.483,718.483Z" transform="translate(-548.587 -599.424)" fill="#b0a6e2" opacity="0.7"/><path d="M724.483,842.975h-119.5a2.33,2.33,0,0,1-2.323-2.323v-.311a2.33,2.33,0,0,1,2.323-2.323h119.5a2.33,2.33,0,0,1,2.323,2.323v.311A2.331,2.331,0,0,1,724.483,842.975Z" transform="translate(-548.587 -692.103)" fill="#b0a6e2" opacity="0.7"/><path d="M724.483,877.743h-119.5a2.33,2.33,0,0,1-2.323-2.323v-.311a2.33,2.33,0,0,1,2.323-2.323h119.5a2.33,2.33,0,0,1,2.323,2.323v.311A2.331,2.331,0,0,1,724.483,877.743Z" transform="translate(-548.587 -717.986)" fill="#b0a6e2" opacity="0.7"/><path d="M724.483,967.335h-119.5a2.33,2.33,0,0,1-2.323-2.323V964.7a2.33,2.33,0,0,1,2.323-2.323h119.5a2.33,2.33,0,0,1,2.323,2.323v.311A2.331,2.331,0,0,1,724.483,967.335Z" transform="translate(-548.587 -784.683)" fill="#b0a6e2" opacity="0.7"/><path d="M724.483,1002.105h-119.5a2.33,2.33,0,0,1-2.323-2.324v-.311a2.331,2.331,0,0,1,2.323-2.324h119.5a2.331,2.331,0,0,1,2.323,2.324v.311A2.33,2.33,0,0,1,724.483,1002.105Z" transform="translate(-548.587 -810.568)" fill="#b0a6e2" opacity="0.7"/><g transform="translate(16.767 67.356)"><g opacity="0.8"><path d="M470.829,551.012h-7.923a6.252,6.252,0,0,1-6.245-6.245v-7.923a6.252,6.252,0,0,1,6.245-6.245h7.923a6.252,6.252,0,0,1,6.245,6.245v7.923A6.252,6.252,0,0,1,470.829,551.012Zm-7.923-16.836a2.671,2.671,0,0,0-2.668,2.668v7.923a2.671,2.671,0,0,0,2.668,2.668h7.923a2.671,2.671,0,0,0,2.668-2.668v-7.923a2.671,2.671,0,0,0-2.668-2.668Z" transform="translate(-456.661 -530.599)" fill="#b0a6e2"/></g><g transform="translate(0 33.672)" opacity="0.8"><path d="M470.829,682.778h-7.923a6.252,6.252,0,0,1-6.245-6.245V668.61a6.252,6.252,0,0,1,6.245-6.245h7.923a6.252,6.252,0,0,1,6.245,6.245v7.923A6.252,6.252,0,0,1,470.829,682.778Zm-7.923-16.836a2.671,2.671,0,0,0-2.668,2.668v7.922a2.671,2.671,0,0,0,2.668,2.668h7.923a2.671,2.671,0,0,0,2.668-2.668V668.61a2.671,2.671,0,0,0-2.668-2.668Z" transform="translate(-456.661 -662.365)" fill="#b0a6e2"/></g><g transform="translate(3.474 31.451)"><path d="M477.484,671.6l-.074,0a1.532,1.532,0,0,1-1.142-.6l-5.695-7.428a1.533,1.533,0,0,1,2.434-1.866l4.593,5.99,12.629-13.531a1.533,1.533,0,0,1,2.242,2.092l-13.865,14.855A1.533,1.533,0,0,1,477.484,671.6Z" transform="translate(-470.256 -653.674)" fill="#f37168"/></g><g transform="translate(0.256 73.85)"><path d="M471.574,839.492h-7.923a6,6,0,0,1-5.99-5.99V825.58a6,6,0,0,1,5.99-5.99h7.923a6,6,0,0,1,5.99,5.99V833.5A6,6,0,0,1,471.574,839.492Zm-7.923-16.836a2.926,2.926,0,0,0-2.923,2.923V833.5a2.926,2.926,0,0,0,2.923,2.923h7.923A2.926,2.926,0,0,0,474.5,833.5v-7.923a2.926,2.926,0,0,0-2.923-2.923Z" transform="translate(-457.661 -819.59)" fill="#b0a6e2"/></g><g transform="translate(0 107.267)" opacity="0.8"><path d="M470.829,970.772h-7.923a6.252,6.252,0,0,1-6.245-6.245V956.6a6.252,6.252,0,0,1,6.245-6.245h7.923a6.252,6.252,0,0,1,6.245,6.245v7.923A6.253,6.253,0,0,1,470.829,970.772Zm-7.923-16.837a2.671,2.671,0,0,0-2.668,2.668v7.922a2.671,2.671,0,0,0,2.668,2.668h7.923a2.671,2.671,0,0,0,2.668-2.668V956.6a2.671,2.671,0,0,0-2.668-2.668Z" transform="translate(-456.661 -950.359)" fill="#b0a6e2"/></g></g><g transform="translate(50.448 22.467)" opacity="0.7"><path d="M612.472,356.412l-9.51,21.969h-5.021l-9.478-21.969h5.492L600.64,372.1l6.779-15.692Z" transform="translate(-588.463 -356.035)" fill="#b0a6e2"/><path d="M695.146,376.185a10.946,10.946,0,0,1-4.3-4.064,11.684,11.684,0,0,1,0-11.644,10.946,10.946,0,0,1,4.3-4.064,13.6,13.6,0,0,1,12.318,0,11.205,11.205,0,0,1,0,19.772,13.6,13.6,0,0,1-12.318,0Zm9.682-3.75a6.418,6.418,0,0,0,2.464-2.5,7.857,7.857,0,0,0,0-7.281,6.419,6.419,0,0,0-2.464-2.5,7.355,7.355,0,0,0-7.03,0,6.415,6.415,0,0,0-2.464,2.5,7.857,7.857,0,0,0,0,7.281,6.415,6.415,0,0,0,2.464,2.5,7.355,7.355,0,0,0,7.03,0Z" transform="translate(-663.527 -354.938)" fill="#b0a6e2"/><path d="M800.591,360.555h-7.03v-4.143h19.144v4.143h-7.03v17.826h-5.084V360.555Z" transform="translate(-741.15 -356.035)" fill="#b0a6e2"/><path d="M902.313,374.3v4.08H885.3V356.412h16.6v4.08H890.356v4.77h10.2v3.955h-10.2V374.3Z" transform="translate(-809.447 -356.035)" fill="#b0a6e2"/></g></g><g transform="translate(499.218 0)"><g transform="translate(0)"><path d="M2585.261,329.369a64.494,64.494,0,0,0-6.628.246c.125-1.221.2-2.454.218-3.7.413-28.814-28.425-52.591-64.412-53.108-29.5-.424-54.65,14.922-62.982,36.343a59.548,59.548,0,0,0-20.327-3.82c-27.415-.393-49.9,17.256-50.215,39.42s21.649,40.452,49.063,40.845c18.531.266,138.516-.229,154.49,0,23.31.335,42.384-12.753,42.6-28S2608.572,329.7,2585.261,329.369Z" transform="translate(-2380.912 -272.799)" fill="#fff"/><path d="M2513.248,276.387c.376,0,.759,0,1.139.008,33.952.487,61.26,22.679,60.875,49.469-.015,1.1-.083,2.239-.2,3.386l-.441,4.322,4.328-.384c1.786-.158,3.6-.239,5.388-.239q.434,0,.872.007c10.584.152,20.448,2.959,27.772,7.9,6.86,4.631,10.589,10.555,10.5,16.68s-3.917,12.076-10.781,16.736c-7.349,4.99-17.066,7.738-27.36,7.738q-.409,0-.823-.006c-2.947-.042-9.581-.063-20.281-.063-13.914,0-32.535.034-52.247.069-20.095.037-40.874.074-56.691.074-13.23,0-21.5-.026-25.27-.081-25.392-.365-45.815-17.055-45.526-37.206.136-9.5,4.859-18.444,13.3-25.182,8.65-6.906,20.167-10.708,32.429-10.708.281,0,.565,0,.847.006a55.739,55.739,0,0,1,19.1,3.586l3.329,1.268,1.292-3.321a44.753,44.753,0,0,1,8.382-13.512,56.08,56.08,0,0,1,13.219-10.81,71.786,71.786,0,0,1,36.846-9.742Zm0-3.588c-28.991,0-53.573,15.218-61.791,36.352a59.548,59.548,0,0,0-20.328-3.82c-.3,0-.6-.006-.9-.006-27.007,0-49,17.5-49.316,39.427-.317,22.165,21.649,40.452,49.063,40.845,4.139.06,13.347.081,25.321.081,30.978,0,80.507-.143,108.938-.143,9.777,0,17.055.017,20.23.062.291,0,.584.006.874.006,22.912,0,41.513-12.949,41.729-28.011.219-15.252-18.5-27.888-41.811-28.222-.309,0-.617-.007-.923-.007q-2.9,0-5.7.253c.125-1.221.2-2.454.219-3.7.413-28.814-28.425-52.591-64.413-53.108-.4-.005-.8-.008-1.19-.008Z" transform="translate(-2380.911 -272.799)" fill="#b0a6e2"/></g><g transform="translate(173.457 74.728)"><path d="M2946.034,496.466a40.169,40.169,0,0,0-4.138.154c.078-.763.125-1.533.136-2.31.259-17.99-17.747-32.836-40.216-33.158-18.422-.264-34.122,9.317-39.323,22.691a37.2,37.2,0,0,0-12.692-2.385c-17.116-.246-31.153,10.774-31.352,24.613s13.515,25.256,30.632,25.5c11.571.166,86.484-.143,96.458,0,14.554.209,26.463-7.962,26.6-17.485S2960.59,496.674,2946.034,496.466Z" transform="translate(-2805.421 -461.146)" fill="#fff"/><path d="M2899.314,464.657c.224,0,.452,0,.678,0,9.84.141,19.015,3.316,25.835,8.939,6.594,5.437,10.167,12.522,10.061,19.949-.009.635-.048,1.292-.115,1.954l-.432,4.23,4.236-.376c1.052-.093,2.12-.14,3.174-.14q.256,0,.515,0c12.076.173,22.19,6.44,22.086,13.683-.046,3.256-2.236,6.593-6.009,9.154a28.664,28.664,0,0,1-15.977,4.5c-.16,0-.322,0-.484,0-1.806-.026-5.867-.039-12.411-.039-8.5,0-19.881.021-31.927.043-12.278.022-24.973.045-34.637.045-8.079,0-13.123-.016-15.422-.049-14.788-.212-26.684-9.811-26.518-21.4.078-5.4,2.787-10.508,7.63-14.375a30.424,30.424,0,0,1,18.991-6.255c.166,0,.333,0,.5,0a32.748,32.748,0,0,1,11.222,2.1l3.258,1.241,1.264-3.249a29.536,29.536,0,0,1,12.645-14.206,42.535,42.535,0,0,1,21.837-5.766Zm0-3.511c-17.714,0-32.733,9.3-37.755,22.211a36.4,36.4,0,0,0-12.421-2.334c-.183,0-.367,0-.55,0-16.5,0-29.94,10.7-30.132,24.091-.2,13.543,13.227,24.717,29.978,24.957,2.529.036,8.156.049,15.472.049,18.928,0,49.192-.088,66.564-.088,5.974,0,10.421.011,12.36.038.178,0,.357,0,.534,0,14,0,25.365-7.912,25.5-17.115.134-9.32-11.3-17.04-25.547-17.245-.189,0-.377,0-.564,0-1.183,0-2.345.053-3.485.154.076-.746.123-1.5.133-2.26.253-17.606-17.368-32.135-39.357-32.45-.243,0-.485,0-.728,0Z" transform="translate(-2818.455 -459.641)" fill="#b0a6e2"/></g></g><path d="M274.578,1524.083s-53.447-56.821-32.856-60.822,42.217,47.556,44.181,42.221-14.391-62.985-5.191-64.314,24.566,65.479,24.566,65.479,2.186-34.832,18.964-42.132-4.037,58.367-4.037,58.367Z" transform="translate(-209.004 -1022.321)" fill="#ddd5fe"/><g transform="translate(551.107 221.655)"><path d="M2284.05,881.327c47.985-33.833,60.817-50.187,73.738-103.58s72.481-117.875,46.867-106.963-69.876,58.018-68.087,103.732-4.852,58.874-12.385,69.367-39.829,33.764-39.829,33.764Z" transform="translate(-2284.05 -669.565)" fill="#ddd5fe"/><path d="M2400.56,858.793c.167-.146.332-.292.5-.438,2.879-3.814,17.57-23.547,21-33.652,3.814-11.217.756-40.266,12.589-61.34s17.348-41,22.98-56.122c7.437-19.967,28.948-35.092,39.958-36.054a1.768,1.768,0,0,0-.206-.54l-2.711-.643a16.949,16.949,0,0,0-3.353,1.107c-25.614,10.912-69.877,58.018-68.087,103.732s-4.852,58.874-12.385,69.367c-2.032,2.83-5.867,6.591-10.383,10.573Z" transform="translate(-2370.714 -669.891)" fill="#b0a6e2"/></g><g transform="translate(589.147 265.298)"><path d="M2499.216,939.33c13.846-54.648,160.98-112.992,147.623-95.971s-48.886,58.047-89.055,73.553-55.473,38.029-65.214,65.544S2485.37,993.978,2499.216,939.33Z" transform="translate(-2472.963 -840.351)" fill="#ddd5fe"/><g transform="translate(0 4.487)"><path d="M2435.393,1017.7a7.546,7.546,0,0,1-1.933-.242.767.767,0,1,1,.426-1.473,5.491,5.491,0,0,0,3.974-.468,4.779,4.779,0,0,0,1.928-3.51c1.63-10.736,5.286-18.914,8.513-26.129a76.493,76.493,0,0,0,4.631-11.985c1.355-5.372,5.292-14.834,12.28-25.274a119.183,119.183,0,0,1,32.176-32.362c14.714-9.9,25.147-15.508,39.585-23.272,14.266-7.671,32.02-17.218,61.672-34.962a.766.766,0,0,1,.787,1.315c-29.683,17.762-47.453,27.318-61.733,35-14.4,7.743-24.8,13.338-39.455,23.194-29.159,19.614-41.521,47.607-43.824,56.738A78.694,78.694,0,0,1,2449.7,986.5c-3.187,7.126-6.8,15.2-8.4,25.733a6.22,6.22,0,0,1-2.626,4.577A6.076,6.076,0,0,1,2435.393,1017.7Z" transform="translate(-2432.906 -857.911)" fill="#b0a6e2"/></g><g transform="translate(103.347 28.792)"><path d="M2840.454,965.417c-1.475,0-2.331-.06-2.416-.066a.767.767,0,0,1,.112-1.529c.206.015,20.982,1.37,40.35-10.686a.767.767,0,0,1,.81,1.3,74.845,74.845,0,0,1-28.131,10.134A73.5,73.5,0,0,1,2840.454,965.417Z" transform="translate(-2837.328 -953.02)" fill="#b0a6e2"/></g><g transform="translate(79.549 53.299)"><path d="M2766.03,1053c-13.238,0-21.192-2.547-21.3-2.583a.767.767,0,0,1,.478-1.457c.148.049,15.076,4.812,38.182,1.087a.766.766,0,1,1,.244,1.513A110.533,110.533,0,0,1,2766.03,1053Z" transform="translate(-2744.202 -1048.922)" fill="#b0a6e2"/></g></g><path d="M771.261,700.328s-48.978-50.094-42.364-59.573c11.385-16.316,59.86,40.17,59.86,40.17s-67.9-152.055-55.424-184.939S796.64,568.85,796.64,568.85s48.791-235.559,70.427-232.577S877.6,459.049,877.6,459.049L1024.938,405.7s64.111-61.77,79.444-52.35-27.155,67.453-20.733,65.012,72.542-74.37,92.124-58.849-78.36,80.653-78.36,80.653l65.6,220.861s52.79-114.48,111.777-102.555c30.23,6.112-62.106,89.99-62.106,89.99s57.838-42.2,80.593-29.843-63.186,43.964-51.919,48.6-24.276,27.638-24.276,27.638,28.06-17.159,40.475-10.056,8.306,16.729,8.306,16.729Z" transform="translate(-574.741 -199.767)" fill="#ddd5fe"/><path d="M3067,1518.529s3.334-65.971,16.623-63.264-3.067,49.441,0,47.029,30.255-78.5,45.792-65.5-31.207,58.746-31.207,58.746,23.847-16.41,31.207-10.123-24.327,33.111-24.327,33.111H3067Z" transform="translate(-2315.815 -1017.968)" fill="#ddd5fe"/><g transform="translate(52.594 296.221)"><g transform="translate(8.037 90.799)"><path d="M507.746,1374.645c-.046-1.3-32.3-64.14-61.968-57.473s-33.784,15.691-54.267,19.811A128.846,128.846,0,0,1,364.7,1339.5s14.275,15.9,42.284,14.169c19.8-1.224,39.68-18.772,54.077-21.5s32.175,23.668,32.175,23.668l7.946,14.212Z" transform="translate(-364.703 -1316.677)" fill="#ddd5fe"/><g transform="translate(15.407 1.181)"><path d="M543.34,1359.858a.765.765,0,0,1-.616-.309c-16.673-22.415-30.416-33.939-43.251-36.267-11.277-2.046-20.39,3.319-30.037,9-2.438,1.435-4.958,2.919-7.513,4.274-22.383,11.869-35.7,10.428-36.254,10.362a.767.767,0,1,1,.184-1.522c.131.015,13.447,1.422,35.352-10.194,2.525-1.339,5.031-2.814,7.454-4.241,9.9-5.828,19.249-11.332,31.089-9.185,13.241,2.4,27.288,14.114,44.208,36.86a.767.767,0,0,1-.158,1.073A.754.754,0,0,1,543.34,1359.858Z" transform="translate(-424.994 -1321.299)" fill="#b0a6e2"/></g></g><path d="M484.644,1110.959c-22.9-72.918-54.335-105.753-100.592-123.9s-50.8-25.7-50.8-25.7,27.666,58.409,55.5,71.9,62.967,18.146,71.219,27.419,20.107,46.242,20.107,46.242l5.135,5.585Z" transform="translate(-333.252 -961.358)" fill="#ddd5fe"/><g transform="translate(18.876 17.945)"><path d="M538.452,1159.6a.767.767,0,0,1-.74-.569,181.757,181.757,0,0,0-10.43-27.268c-6.614-14.025-18.039-33.8-34.906-48.347-16.7-14.4-31.565-20.88-45.942-27.141-13.616-5.931-26.476-11.532-39.075-23.37a.767.767,0,1,1,1.05-1.117c12.4,11.656,25.147,17.206,38.637,23.082,14.482,6.308,29.457,12.83,46.331,27.386,17.08,14.733,28.627,34.716,35.306,48.885a183.2,183.2,0,0,1,10.51,27.5.767.767,0,0,1-.543.938A.852.852,0,0,1,538.452,1159.6Z" transform="translate(-407.118 -1031.581)" fill="#b0a6e2"/></g><g transform="translate(36.479 45.545)"><path d="M514.692,1144.3a.766.766,0,0,1-.229-.036,90.875,90.875,0,0,0-37.57-2.059.766.766,0,1,1-.249-1.513,92.5,92.5,0,0,1,38.278,2.109.767.767,0,0,1-.23,1.5Z" transform="translate(-476.002 -1139.587)" fill="#b0a6e2"/></g><g transform="translate(49.825 59.574)"><path d="M586.928,1208.282a.763.763,0,0,1-.483-.172c-15.909-12.935-29.1-12.866-57.414-11.473a.767.767,0,0,1-.075-1.532c28.722-1.412,42.109-1.476,58.456,11.815a.767.767,0,0,1,.111,1.078A.758.758,0,0,1,586.928,1208.282Z" transform="translate(-528.227 -1194.487)" fill="#b0a6e2"/></g></g><path d="M1049.866,1757.811H257.133a1.661,1.661,0,1,1,0-3.322h792.733a1.661,1.661,0,1,1,0,3.322Z" transform="translate(-222.754 -1255.589)" fill="#232e4f"/><g transform="translate(327.632 98.685)"><path d="M1473.129,393.465c7.6,4.837,22.017,21.474,31.214,31.15s14.181,15.052,14.181,15.052l-113.475-2.737a55.08,55.08,0,0,0,11.729-12.608c5.571-8.162,7.434-15.552,22.871-26.1C1455.19,387.609,1465.711,388.742,1473.129,393.465Z" transform="translate(-1405.05 -390.011)" fill="#facf50"/><path d="M1483.01,415.024c5.571,0,9.089,21.4,11.729,26.1s16.53,5.571,16.53,5.571v-8.844s2.529,6.645,4.288,10.845c4.985-3.174,11.582-6.986,18.037-7.43.588.325,11.731,11.83,11.731,11.83l-92.809,1.515s-5.571-2.932-4.691-2.932,7.752-11.729,13.405-16.86S1483.01,415.024,1483.01,415.024Z" transform="translate(-1435.216 -407.69)" fill="#e0b03e"/><path d="M1673.05,519.611s18.179-7.77,27.269-6.451,11.435,6.451,11.435,6.451Z" transform="translate(-1594.468 -476.944)" fill="#facf50"/></g><g transform="translate(197.971 139.688)"><path d="M1495.889,1512.324v-64.331h-149.02v64.331h-48.452a16.286,16.286,0,0,0-16.286,16.286v3.959a5.294,5.294,0,0,0,5.294,5.294h267.908a5.294,5.294,0,0,0,5.294-5.294v-3.959a16.286,16.286,0,0,0-16.286-16.286Z" transform="translate(-1188.512 -1178.777)" fill="#632ce9"/><g transform="translate(158.355 274.727)"><path d="M1502.91,1505.377l149.022-11.491v-27.1l-149.022,1.578Z" transform="translate(-1502.91 -1466.79)" fill="#3202a7"/><path d="M1651.932,1631.42l-149.022,10.547h149.022Z" transform="translate(-1502.91 -1583.148)" fill="#3202a7"/></g><path d="M1420.6,813.765H970.826a7.978,7.978,0,0,1-7.978-7.978V537.826a7.978,7.978,0,0,1,7.978-7.978H1420.6a7.978,7.978,0,0,1,7.978,7.978v267.96A7.978,7.978,0,0,1,1420.6,813.765Z" transform="translate(-962.848 -529.848)" fill="#632ce9"/><path d="M1439.862,812.93h-425.2a7.18,7.18,0,0,1-7.179-7.18V576.5a7.179,7.179,0,0,1,7.179-7.179h425.2a7.179,7.179,0,0,1,7.179,7.179V805.752A7.18,7.18,0,0,1,1439.862,812.93Z" transform="translate(-994.397 -557.748)" fill="#ddd5fe"/><path d="M1726.208,1448.722h-32.567a3.266,3.266,0,0,1-3.257-3.257v-.982a3.266,3.266,0,0,1,3.257-3.257h32.567a3.266,3.266,0,0,1,3.257,3.257v.982A3.266,3.266,0,0,1,1726.208,1448.722Z" transform="translate(-1477.058 -1173.994)" fill="#3202a7"/><g transform="translate(21.047 54.289)"><path d="M1386.348,818.106a104.966,104.966,0,0,0-11.408.459c.216-2.229.349-4.478.381-6.749.755-52.571-48.842-95.909-110.777-96.8-50.779-.729-94.078,27.306-108.448,66.4a97.29,97.29,0,0,0-34.979-6.94c-47.181-.677-85.9,31.556-86.48,72s37.2,73.771,84.378,74.448c31.893.458,238.394-.624,265.885-.229,40.117.576,72.965-23.329,73.364-51.157S1426.465,818.68,1386.348,818.106Z" transform="translate(-1034.63 -715.002)" fill="#fff"/><path d="M1262.608,720.863c.615,0,1.238,0,1.85.013a122.96,122.96,0,0,1,41.567,7.734,108.818,108.818,0,0,1,33.555,19.837,89.861,89.861,0,0,1,22.172,28.726,76.6,76.6,0,0,1,7.7,34.554c-.03,2.037-.149,4.146-.355,6.267l-.687,7.076,7.078-.671c3.1-.294,6.247-.443,9.353-.443.469,0,.945,0,1.416.01a94.546,94.546,0,0,1,26.57,4.1,73.92,73.92,0,0,1,21.255,10.3c11.973,8.562,18.477,19.6,18.312,31.08a32.862,32.862,0,0,1-5.012,16.646,50.141,50.141,0,0,1-13.867,14.573,72.831,72.831,0,0,1-21.1,10.3,88.266,88.266,0,0,1-26.106,3.866c-.444,0-.893,0-1.335-.01-4.17-.06-12.514-.089-25.508-.089-24.352,0-60.77.1-99.326.209-39.657.11-80.664.224-108.846.224-16.3,0-26.837-.038-32.206-.115a91.417,91.417,0,0,1-31.177-5.852,81.3,81.3,0,0,1-25.127-15,67.67,67.67,0,0,1-16.558-21.659,58.1,58.1,0,0,1-5.736-25.994c.253-17.62,8.494-34.176,23.2-46.618a80.983,80.983,0,0,1,25.1-14.329,91.116,91.116,0,0,1,30.849-5.279c.457,0,.92,0,1.375.01a91.071,91.071,0,0,1,32.871,6.515l5.61,2.26,2.087-5.677a83.579,83.579,0,0,1,14.592-24.913,98.657,98.657,0,0,1,22.889-19.837,113.2,113.2,0,0,1,29.426-13.1,123.912,123.912,0,0,1,34.1-4.722Zm0-5.864c-49.943,0-92.326,27.816-106.515,66.414a97.294,97.294,0,0,0-34.979-6.94q-.73-.01-1.459-.011c-46.518,0-84.446,31.984-85.02,72.006-.58,40.439,37.2,73.771,84.378,74.448,5.76.083,17.222.115,32.29.115,55.035,0,158.265-.433,208.172-.433,12.084,0,21.032.026,25.423.089.472.007.949.01,1.419.01,39.472,0,71.55-23.668,71.945-51.168.4-27.827-31.8-50.853-71.917-51.429q-.752-.011-1.5-.011c-3.362,0-6.668.162-9.907.47.216-2.229.349-4.478.381-6.75.754-52.571-48.842-95.909-110.777-96.8-.644-.009-1.292-.013-1.934-.013Z" transform="translate(-1034.629 -714.999)" fill="#632ce9"/></g><g transform="translate(120.228 146.829)"><path d="M1591.632,1138.952H1372.88v-87.9l58.52-20.455h97.99l62.241,20.455Z" transform="translate(-1372.88 -1030.6)" fill="#f37168"/><path d="M1431.4,1030.6l-58.52,20.455h218.752l-62.241-20.455Z" transform="translate(-1372.88 -1030.6)" fill="#d54a41"/><path d="M1683.515,1054.508H1598.2l15.332-8.248h54.653Z" transform="translate(-1532.132 -1041.668)" fill="#f37168"/><g transform="translate(78.68 7.838)"><path d="M1701.286,1059.09h-59.193a.88.88,0,0,1,0-1.76h59.193a.88.88,0,0,1,0,1.76Z" transform="translate(-1641.213 -1057.33)" fill="#993341"/></g><path d="M1649.538,1248.075H1542.524a7.158,7.158,0,0,1-7.137-7.137v-18.432a7.158,7.158,0,0,1,7.137-7.137h107.014a7.158,7.158,0,0,1,7.137,7.137v18.432A7.161,7.161,0,0,1,1649.538,1248.075Z" transform="translate(-1487.737 -1161.192)" fill="#d54a41"/></g></g><g transform="translate(345.812 77.118)"><g transform="translate(43.595 126.81)"><path d="M1615.73,761.958c3.1-4.752,32.027-13.224,34.094-13.018s17.06,33.887,20.2,47.111,3.558,15.29,3.558,15.29-33.474,10.951-39.673,11.984l-6.2,1.033s-3.1-29.754-6.2-40.706S1615.73,761.958,1615.73,761.958Z" transform="translate(-1615.73 -748.936)" fill="#dbe5eb"/><g transform="translate(20.962 54.853)"><path d="M1687.954,942.85a.733.733,0,0,1-.2-1.439l19.217-5.372a.733.733,0,0,1,.395,1.412l-19.217,5.372A.7.7,0,0,1,1687.954,942.85Z" transform="translate(-1687.221 -936.011)" fill="#3e6bab"/></g><g transform="translate(19.93 52.167)"><path d="M1684.434,933.688a.733.733,0,0,1-.2-1.438l18.6-5.372a.733.733,0,0,1,.407,1.408l-18.6,5.372A.732.732,0,0,1,1684.434,933.688Z" transform="translate(-1683.701 -926.849)" fill="#3e6bab"/></g><g transform="translate(16.417 41.594)"><path d="M1672.453,897.045a.733.733,0,0,1-.195-1.44l17.357-4.787a.733.733,0,1,1,.39,1.413l-17.356,4.787A.72.72,0,0,1,1672.453,897.045Z" transform="translate(-1671.72 -890.791)" fill="#3e6bab"/></g><g transform="translate(16.417 39.15)"><path d="M1672.454,888.759a.733.733,0,0,1-.2-1.439l17.357-4.838a.733.733,0,0,1,.394,1.412l-17.357,4.838A.724.724,0,0,1,1672.454,888.759Z" transform="translate(-1671.721 -882.454)" fill="#3e6bab"/></g><g transform="translate(12.491 29.439)"><path d="M1659.064,855.76a.733.733,0,0,1-.208-1.436l16.737-4.959a.733.733,0,1,1,.416,1.406l-16.737,4.959A.727.727,0,0,1,1659.064,855.76Z" transform="translate(-1658.331 -849.335)" fill="#3e6bab"/></g><g transform="translate(12.491 27.166)"><path d="M1659.063,847.8a.733.733,0,0,1-.519-1.251c.164-.164.548-.548,16.022-4.939a.733.733,0,1,1,.4,1.411c-5.544,1.573-14.587,4.208-15.479,4.645A.725.725,0,0,1,1659.063,847.8Z" transform="translate(-1658.329 -841.583)" fill="#3e6bab"/></g><g transform="translate(40.035 35.904)"><path d="M1753.148,881.082a.868.868,0,0,1-.211-.026.88.88,0,0,1-.644-1.064l1.953-7.937a.88.88,0,0,1,1.445-.442l3.419,3.1a.88.88,0,0,1-1.181,1.3l-2.327-2.109-1.6,6.506A.883.883,0,0,1,1753.148,881.082Z" transform="translate(-1752.267 -871.385)" fill="#d54a41"/></g></g><path d="M1626.482,341.639l-15.455,14.578c-4.015,3.122-4.471,5.5-3.714,10.534.936,6.225,2.524,10.968,5.082,10.968,4.4,0,4.008-12.218,4.008-12.218l15-15.088Z" transform="translate(-1565.971 -334.255)" fill="#f09959"/><path d="M1656.141,341.639l-4.566,3.55A53.025,53.025,0,0,0,1649,362.55l12.064-12.136Z" transform="translate(-1595.63 -334.255)" fill="#e38540"/><path d="M1680.367,352.432c-3.225,6.308-8.814,11.553-13.146,10.435-4.487-1.158-9.014-8.819-5.613-15.818,3.3-6.783,7.966-11.922,13.145-10.435S1683.8,345.717,1680.367,352.432Z" transform="translate(-1603.72 -330.522)" fill="#f09959"/><path d="M1628.742,705.357c5.278,8.015,10.165,13.684,11.729,19.743s-2.541,15.443-4.985,12.315-5.768-3.962-6.548-12.706c-.977-10.947-4.887-12.45-4.887-12.45Z" transform="translate(-1578.016 -591.325)" fill="#f09959"/><path d="M1498.132,408.385c5.865,2.826,6.158,50.914,15.247,71.732s9.286,20.959,9.286,20.959-7.851,4.6-9.545,5.394-21.515-24.883-25.25-39.255c-6.744-25.95-13.341-30.055-20.818-31.228,1.319-3.812,8.5-12.755,17.007-20.085S1498.132,408.385,1498.132,408.385Z" transform="translate(-1467.051 -381.43)" fill="#facf50"/><path d="M1728.8,521.351s5.375-4.053,10.074-3.467,13.934,4.838,12.028,6.3-7.184,1.613-10.409,0S1729.533,520.618,1728.8,521.351Z" transform="translate(-1652.051 -458.782)" fill="#f09959"/><path d="M1633.74,334.817a14.508,14.508,0,0,0,10.613-6.171c.611-.74.987,5.878,2.281,6.353s2.757-3.143,4.36-6.214,3.753-2.793,3.948,0,2.107,11.2,6.67,13.1a37.969,37.969,0,0,0,6.817,2.113,48.641,48.641,0,0,1-.684-10.95c.684-8.3-6.534-15.343-12.217-16.323-4.535-.782-12.391-.138-15.638,6.255C1636.763,329.134,1633.74,334.817,1633.74,334.817Z" transform="translate(-1584.864 -316.458)" fill="#3a384d"/><ellipse cx="2.66" cy="3.771" rx="2.66" ry="3.771" transform="matrix(0.95, 0.312, -0.312, 0.95, 58.138, 9.385)" fill="#f09959"/></g><g transform="translate(555.465 207.49)"><path d="M2664.254,873.281c-3.865-2.981-22.77,4.644-23.157,11.612s5.193,21.847,17.288,22.9,13.547-.322,14.58-9.87S2669.608,877.409,2664.254,873.281Z" transform="translate(-2506.487 -839.914)" fill="#3a384d"/><path d="M2875.879,1679.08s8.6,3.551,7.225,5.389,2.752,12.33,2.752,12.33h-1.72l-3.268-6.748s1.376,8.168-1.549,9.436-13.074,4.15-12.386,1.784c.366-1.258,2.8-4.344,2.8-4.344Z" transform="translate(-2666.094 -1409.908)" fill="#2a018f"/><path d="M2873.461,1684.32c1.5,4.142.122,15.668-1.942,17.9s6.366.172,7.913-1.892,1.156-15.541,1.156-15.541Z" transform="translate(-2669.129 -1413.612)" fill="#f09959"/><path d="M2514.211,1685.06s5.886,7.208,3.8,8.172-3.429,12.16-3.429,12.16l-1.514-.816.325-7.491s-2.665,7.843-5.842,7.571-14.457-.942-11.749-4.308c.822-1.021,4.259-2.289,4.259-2.289Z" transform="translate(-2403.516 -1414.135)" fill="#2a018f"/><path d="M2514.688,1680.84c-.646,4.358-7.328,13.849-10.206,14.838s5.52,3.172,7.863,2.09,8.394-13.131,8.394-13.131Z" transform="translate(-2409.523 -1411.152)" fill="#f09959"/><path d="M2695.71,1204.189s12.128,61.083,18.32,74.755c4.682,10.334,34.578,61.414,38.448,60.64s4.081-2.037,4.081-2.037-11.4-40.673-17.5-49.055c-9.548-13.118-7.226-16.555-7.483-41.069s.01-24.989-6.446-39.7l-6.457-14.708Z" transform="translate(-2545.099 -1066.367)" fill="#f09959"/><path d="M2584.994,1213.9s-28.329,66.384-30.292,73.351-15.639,66.059-15.639,66.059,3.16,2.737,5.586,2.338,23.844-41.044,24.409-54.2,26.516-40.513,29.613-52.125S2584.994,1213.9,2584.994,1213.9Z" transform="translate(-2434.383 -1081.126)" fill="#f09959"/><path d="M2886.23,1318.86s4,33.288,3.742,42.964.012,10.838.012,10.838l35.855-5.548s-4.773-17.869-6.58-22.482S2886.23,1318.86,2886.23,1318.86Z" transform="translate(-2679.755 -1155.31)" fill="#f37168"/><path d="M2889.75,1323.04s1.968,14.9,3.951,30.641,2.113,19.611,2.113,19.611l32.513-4.416Z" transform="translate(-2682.243 -1158.265)" fill="#fff"/><path d="M2900.923,1315.12c-1.677.452-19.095,0-19.095,0a450.58,450.58,0,0,1,11.74,50.124c18.708-1.965,33.8-2.581,33.8-2.581s-8.1-26.32-12.241-35.351-5.951-12.192-5.951-12.192Z" transform="translate(-2676.645 -1152.668)" fill="#f37168"/><path d="M2925.81,1270.192s4.128,7.124,4.9,11.9-.258,14.192-2.451,14.192-2.322-.8-3.741-5.95-2.194-7.1-2.194-7.1h-3.1v-13.662Z" transform="translate(-2703.08 -1120.477)" fill="#f09959"/><path d="M2652.087,1201.37c.688.885,11.568,18.966,13.289,34.965s1.376,43.007,1.376,43.007l-8.625,1.72-5.137-35.094-2.237,35.094s-9.633,3.44-23.051.86-28.213-11.7-28.213-11.7l26.149-62.962Z" transform="translate(-2477.091 -1072.27)" fill="#2a018f"/><path d="M2674.195,1004.45s13.16,4.3,14.451,10.278c1.143,5.3-3.308,38.869-4.333,46.425a2.8,2.8,0,0,1-1.6,2.168c-4.191,1.937-16.77,7.43-23.223,6.748-6.966-.737-15.847-38.454-14.967-42.4,1.291-5.78,10.581-19.913,17.806-22.988S2674.195,1004.45,2674.195,1004.45Z" transform="translate(-2508.875 -932.247)" fill="#f2f2f2"/><path d="M2694.543,941s4.515,17.222,7.1,18.255-7.1,15.922-12.773,15.515,2.839-14.085,2.839-14.085l-5.674-17.456Z" transform="translate(-2538.258 -888.244)" fill="#f09959"/><path d="M2696.457,947.631c-1.392,5.465-3.267,8.013-5.615,10.386l-4.807-14.792,8.511-2.229A45.1,45.1,0,0,0,2696.457,947.631Z" transform="translate(-2538.261 -888.243)" fill="#e38540"/><path d="M2647.524,907.307c-2.022,6.79-1.6,14.443,2.306,16.625,4.044,2.26,12.609-.157,14.98-7.569,2.3-7.184,2.467-14.124-2.306-16.624S2649.677,900.079,2647.524,907.307Z" transform="translate(-2510.202 -858.454)" fill="#f09959"/><path d="M2251.083,807.435l7.055-20.174s-28.957-23.176-44.758-25.7a41.418,41.418,0,0,0-16.661.869l-14.659,27.753s26.6,3.056,36.938,11.5,21.219,18.48,21.219,18.48S2246.41,817.5,2251.083,807.435Z" transform="translate(-2182.06 -761.085)" fill="#fff"/><path d="M2416.159,905.3s-5.843-5.922-7.225-8.386-4.516-6.322-3.355-2.709,1.419,4.258,1.161,7.1a5.207,5.207,0,0,1-2.322,4l9.548,5.032Z" transform="translate(-2339.219 -854.132)" fill="#f09959"/><path d="M2504.79,951.592s-41.545-2.086-45.416-3.87-30.965-19.585-30.965-19.585-4.387,5.809-4.645,6,28.127,22.639,33.8,25.478,32.255,9.18,32.255,9.18-4.9,26.02-6.968,32.16-3.613,8.159-3.613,8.159,7.741,1.658,11.1-1.342,4.13-25.81,4.13-35.255S2504.79,951.592,2504.79,951.592Z" transform="translate(-2352.891 -879.154)" fill="#2a018f"/><path d="M2734.357,1009.911a53.642,53.642,0,0,1,18.32,11.75c9.161,8.765,22.45,20.714,25.03,27.628s6.709,36.964,6.709,36.964-7.226,2.448-8.258,1.365-8.128-27.393-11.741-31.9-23.248-22.837-23.248-22.837l6.992,26.7s-9.726,6.365-16.346,3.12-9.5-11.8-13.867-22.23,7.5-33.139,7.5-33.139Z" transform="translate(-2560.136 -935.127)" fill="#2a018f"/><path d="M2693.288,991.779c.43.516,3.355,4.559,3.355,4.559s-5.843,12.144-8.469,14.329a7.27,7.27,0,0,1-5.981,1.325s-7.246-3-5.776-5.724a55.869,55.869,0,0,1,6.808-9.695l.9-2,.649,2a21.827,21.827,0,0,0-2.15,4.237c-.947,2.494-.774,8.773-1.2,9.547s1.2.172,2.237-2.925a36.149,36.149,0,0,0,1.29-7.655s4.559-2.58,6.107-4.473A16.132,16.132,0,0,0,2693.288,991.779Z" transform="translate(-2531.324 -924.136)" fill="#f2f2f2"/><g transform="translate(13.016 4.299)"><path d="M2227.184,793.195a.733.733,0,0,1-.627-1.112l9.656-15.984a.733.733,0,1,1,1.255.758l-9.656,15.984A.736.736,0,0,1,2227.184,793.195Z" transform="translate(-2226.452 -775.745)" fill="#3e6bab"/><g transform="translate(20.258 5.653)"><path d="M2296.275,810.125a.732.732,0,0,1-.612-1.134l8.919-13.635a.733.733,0,1,1,1.227.8l-8.92,13.635A.729.729,0,0,1,2296.275,810.125Z" transform="translate(-2295.542 -795.024)" fill="#3e6bab"/></g><g transform="translate(32.722 12.826)"><path d="M2338.782,832.635a.734.734,0,0,1-.7-.943c.032-.108.1-.334,6.963-11.847a.733.733,0,1,1,1.259.751c-2.612,4.381-6.567,11.046-6.845,11.591A.733.733,0,0,1,2338.782,832.635Z" transform="translate(-2338.048 -819.487)" fill="#3e6bab"/></g><g transform="translate(5.756 0.522)"><path d="M2246.814,795.178a.733.733,0,0,1-.632-1.1l9.446-16.188a.733.733,0,1,1,1.266.739l-9.445,16.188A.732.732,0,0,1,2246.814,795.178Z" transform="translate(-2246.082 -777.524)" fill="#3e6bab"/></g><g transform="translate(16.939 4.164)"><path d="M2284.955,805.1a.733.733,0,0,1-.623-1.119c.323-.521,7.92-12.777,8.625-13.737a.733.733,0,1,1,1.181.868c-.537.731-5.835,9.243-8.561,13.641A.732.732,0,0,1,2284.955,805.1Z" transform="translate(-2284.222 -789.947)" fill="#3e6bab"/></g><g transform="translate(23.215 22.382)"><path d="M2306.5,863.749a.88.88,0,0,1-.149-1.746l4.144-.716-3.87-7.944a.88.88,0,0,1,1.583-.77l4.382,9a.88.88,0,0,1-.641,1.252l-5.3.915A.914.914,0,0,1,2306.5,863.749Z" transform="translate(-2305.624 -852.078)" fill="#d54a41"/></g><g transform="translate(30.163 11.529)"><path d="M2330.054,827.531a.733.733,0,0,1-.625-1.113l6.665-11a.733.733,0,0,1,1.254.76l-6.666,11A.731.731,0,0,1,2330.054,827.531Z" transform="translate(-2329.322 -815.065)" fill="#3e6bab"/></g><g transform="translate(41.957 21.041)"><path d="M2370.274,861.858a.733.733,0,0,1-.634-1.1l7.444-12.887a.733.733,0,0,1,1.27.733l-7.444,12.887A.735.735,0,0,1,2370.274,861.858Z" transform="translate(-2369.542 -847.505)" fill="#3e6bab"/></g><g transform="translate(47.067 24.152)"><path d="M2387.7,870.8a.733.733,0,0,1-.638-1.093l6.333-11.221a.732.732,0,1,1,1.276.72l-6.333,11.221A.732.732,0,0,1,2387.7,870.8Z" transform="translate(-2386.972 -858.113)" fill="#3e6bab"/></g></g><path d="M2646.42,900.692c3.483,7.1,19.057,6.62,18.947,7.568s2.857,14.667,6.341,14.581-3.25-28.6-3.25-28.6l-14.425.645Z" transform="translate(-2510.262 -855.198)" fill="#3a384d"/><path d="M2739.158,907.89c5.84-2.372,6.873-1.469,8.808,1.627s4.129,4.324,3.742,7.129.258,5.7-.9,8.51-5.16,3.068-8.515,4.745-4.953-3.232-4.953-3.232Z" transform="translate(-2574.52 -863.893)" fill="#3a384d"/><ellipse cx="2.71" cy="3.957" rx="2.71" ry="3.957" transform="translate(157.515 59.033) rotate(-166.372)" fill="#f09959"/></g><g transform="translate(142.96 224.494)"><path d="M974.472,1707.431s1.88,7.257,8.273,9.091,12.628,5.391,3.644,5.5c-9.855.12-15.5-.344-19.6-1.031s-1.412-7.907-.762-11.344S974.472,1707.431,974.472,1707.431Z" transform="translate(-909.05 -1446.8)" fill="#1f0265"/><path d="M788.544,1675.953s-1.369,14.5,2.116,15.742,7.469,4.233,2.49,4.233-11.141,1.177-12.752-4.233c-1.966-6.6-6.411-7.711-4.826-11.069s6.374-9.6,6.374-9.6Z" transform="translate(-775.237 -1421.222)" fill="#1f0265"/><path d="M940.856,1171.675,928.2,1331.863s-6.574,3.038-11.312,3.5-14.538-76.766-13.707-89.113-8.562-51.558-6.387-64.266S940.856,1171.675,940.856,1171.675Z" transform="translate(-860.922 -1068.158)" fill="#2a018f"/><path d="M923.333,1174.235c.892-.12,1.792-.226,2.692-.321l21.861,8.459-4.032,47.248c-10.477,23.026-23.013,44.76-29.31,58.81-2.868-16.709-3.95-34.728-3.564-40.472.4-5.946-1.571-18.122-3.479-30.569Z" transform="translate(-868.719 -1069.869)" fill="#1f0265"/><path d="M857.9,1229.436c-12.268,54.534-60.525,130.647-60.473,130.647s-9.016-1.566-9.474-5.691,5.175-54.859,17.443-66.8,13.105-68.622,13.105-68.622Z" transform="translate(-784.208 -1101.714)" fill="#2a018f"/><path d="M873.027,994.665c-13.8,13.878-22.651,37.744-22.771,43.649s15.911,16.444,15.911,16.444Z" transform="translate(-828.259 -943.179)" fill="#368da8"/><path d="M967.695,890.211,962.23,917.4l14.945,16.09,1.988-32.972Z" transform="translate(-907.401 -869.353)" fill="#f09959"/><path d="M894.277,954.014s-7.049,2.474-14.9,22.391-13.3,69-13.3,69,15.076,12.8,36.658,12.794c13.754,0,20.7-3.094,20.7-3.094s1.375-46.26,0-62.958S901.086,953.594,894.277,954.014Z" transform="translate(-839.448 -914.443)" fill="#63acc2"/><path d="M974.283,992.141c-1.375-16.7-22.356-38.552-29.165-38.132,0,0-2.924,1.028-7.1,7.078,7.045-3.428,15.824,2.55,24.034,21.9,4.107,9.681,8.465,23.61,12.818,26.648C974.808,1002.709,974.638,996.446,974.283,992.141Z" transform="translate(-890.287 -914.44)" fill="#368da8"/><path d="M984.292,914.248c-4.441-5.173-6.088-13.076-6.7-18.11l.864-4.3,1.112.435,10.453,9.4L989,918.635A26.52,26.52,0,0,1,984.292,914.248Z" transform="translate(-918.259 -870.505)" fill="#e38540"/><path d="M991.485,869.034c1.715,8.093,9.169,12.565,15.355,11.253s7.54-9.152,5.825-17.245-6.9-12.348-13.085-11.037S989.769,860.941,991.485,869.034Z" transform="translate(-927.777 -842.184)" fill="#f09959"/><path d="M958.145,933.017l-4.683,7.911,24.819,18.554s-1.869-8.6-2.37-11.764S958.539,932.352,958.145,933.017Z" transform="translate(-901.203 -899.589)" fill="#63acc2"/><path d="M988.388,823.4c10.424,3.277,1.9,16.414-1.446,16.534s-4.571-3-7.321-2.28-5.347-4.169-7.028-3.1-.611,11,0,12.681-2.139,1.833-2.139,1.833-1.12-7.028-2.852-6.57-3.017,5.347-5.506,6.57l-2.49,1.222s-1.528-10.606-3.82-12.637-.855-9.059,2.4-10.434,4.039-7.639,8.536-8.1,8.163,2.6,14.122,1.833S985.473,822.483,988.388,823.4Z" transform="translate(-902.055 -819.074)" fill="#153f9c"/><ellipse cx="2.942" cy="3.97" rx="2.942" ry="3.97" transform="translate(68.066 26.492) rotate(156.976)" fill="#f09959"/><path d="M938.139,1004.48s25.574,28.442,34.781,37.24c.125,8.191.061,17.734-.06,26.216-4.988-2.455-18.848-9.632-26.738-17.24C936.379,1041.3,932.031,1019.757,938.139,1004.48Z" transform="translate(-888.382 -950.116)" fill="#368da8"/><path d="M1199.278,1023.8c1.688-10.5,20.745-41.066,27.943-44.594,3.969-1.946,39.8,4.093,39.8,4.093s-40.643,35.281-45.865,54.191c-4.665,16.894-4.092,23.289-4.092,23.289l-16.416-12S1196.736,1039.6,1199.278,1023.8Z" transform="translate(-1074.334 -931.977)" fill="#dbe5eb"/><path d="M1183.83,1114.813s6.116-7.573,8.556-6.844a12.941,12.941,0,0,0,5.5.729c2.139-.118,2.291,2.974-.764,8.533s-11.306,6.674-13.292,6.574S1183.83,1114.813,1183.83,1114.813Z" transform="translate(-1063.399 -1023.224)" fill="#f09959"/><path d="M939.3,982.644c-9.89,2.63-6.672,27.7-1.1,38.052,4.006,7.44,17.388,15.026,25.563,17.154s43.634-2.293,43.634-2.293,1.3-11.689-1.164-11.689-31.747-.678-39.614-7.789S951.248,979.468,939.3,982.644Z" transform="translate(-886.691 -934.514)" fill="#63acc2"/><g transform="translate(125.646 53.689)"><path d="M1204.408,1103.263c-2.635-1.693,3.464-11.416,3.464-11.416h7.026a46.249,46.249,0,0,1-5.575,5.345A19.441,19.441,0,0,0,1204.408,1103.263Z" transform="translate(-1203.747 -1065.555)" fill="#dbe5eb"/><g transform="translate(32.004 2.892)"><path d="M1330.358,1016.684a.736.736,0,0,1-.137-.013l-16.728-3.174a.733.733,0,1,1,.273-1.44l16.729,3.175a.733.733,0,0,1-.136,1.452Z" transform="translate(-1312.896 -1012.043)" fill="#3e6bab"/></g><g transform="translate(27.141 10.302)"><path d="M1310.27,1043.649a.73.73,0,0,1-.253-.045l-13.227-4.869a.733.733,0,0,1,.507-1.375l13.227,4.869a.733.733,0,0,1-.253,1.421Z" transform="translate(-1296.31 -1037.314)" fill="#3e6bab"/></g><g transform="translate(25.448 13.224)"><path d="M1303.759,1053.231a.732.732,0,0,1-.251-.044c-4.02-1.462-11.795-4.278-12.448-4.473a.733.733,0,0,1,.418-1.4c.858.256,12.054,4.326,12.53,4.5a.733.733,0,0,1-.25,1.422Z" transform="translate(-1290.536 -1047.278)" fill="#3e6bab"/></g><g transform="translate(16.98 24.273)"><path d="M1273.82,1091.038a.74.74,0,0,1-.286-.058c-3.984-1.69-10.571-4.425-11.288-4.568a.733.733,0,0,1,.287-1.437c1.077.215,9.83,3.916,11.574,4.656a.733.733,0,0,1-.286,1.408Z" transform="translate(-1261.656 -1084.96)" fill="#3e6bab"/></g><g transform="translate(15.922 26.579)"><path d="M1270,1098.978a.732.732,0,0,1-.282-.057l-11.219-4.687a.733.733,0,1,1,.565-1.353l11.219,4.687a.733.733,0,0,1-.283,1.41Z" transform="translate(-1258.047 -1092.824)" fill="#3e6bab"/></g><g transform="translate(33.753)"><path d="M1337.184,1006.961a.749.749,0,0,1-.137-.012l-17.589-3.317a.733.733,0,0,1,.271-1.441l17.589,3.317a.733.733,0,0,1-.135,1.453Z" transform="translate(-1318.861 -1002.178)" fill="#3e6bab"/></g><g transform="translate(12.25 35.421)"><path d="M1254.3,1127.761a.736.736,0,0,1-.279-.056l-8.044-3.316a.733.733,0,0,1,.559-1.356l8.044,3.317a.733.733,0,0,1-.28,1.411Z" transform="translate(-1245.526 -1122.978)" fill="#3e6bab"/></g><g transform="translate(11.264 38.736)"><path d="M1250.375,1139.21a.729.729,0,0,1-.307-.067l-7.48-3.458a.733.733,0,1,1,.615-1.331l7.479,3.457a.733.733,0,0,1-.308,1.4Z" transform="translate(-1242.163 -1134.287)" fill="#3e6bab"/></g><g transform="translate(4.348 50.591)"><path d="M1229.541,1180.77a.735.735,0,0,1-.3-.065l-10.231-4.587a.733.733,0,1,1,.6-1.338l10.232,4.587a.733.733,0,0,1-.3,1.4Z" transform="translate(-1218.577 -1174.717)" fill="#3e6bab"/></g><g transform="translate(3.574 54.049)"><path d="M1226.123,1192.211a.727.727,0,0,1-.3-.063c-9.3-4.118-9.5-4.25-9.565-4.294a.733.733,0,0,1,.777-1.243c.421.218,5.827,2.622,9.382,4.2a.734.734,0,0,1-.3,1.4Z" transform="translate(-1215.935 -1186.511)" fill="#3e6bab"/></g><g transform="translate(16.128 6.485)"><path d="M1259.63,1031.2a.88.88,0,0,1-.87-1.01l.706-4.728a.88.88,0,1,1,1.74.26l-.457,3.06,8.862-4.4a.88.88,0,1,1,.782,1.576l-10.372,5.151A.88.88,0,0,1,1259.63,1031.2Z" transform="translate(-1258.75 -1024.295)" fill="#d54a41"/></g></g></g></g></g></svg>