<svg xmlns="http://www.w3.org/2000/svg" width="582" height="446" viewBox="0 0 582 446"><g transform="translate(-1763 47)" opacity="0.4"><g transform="translate(1763 -46)" fill="none" stroke="#f5c507" stroke-width="10"><ellipse cx="230" cy="222.5" rx="230" ry="222.5" stroke="none"/><ellipse cx="230" cy="222.5" rx="225" ry="217.5" fill="none"/></g><g transform="translate(1785 -47)" fill="none" stroke="#f5c507" stroke-width="10"><ellipse cx="230" cy="222.5" rx="230" ry="222.5" stroke="none"/><ellipse cx="230" cy="222.5" rx="225" ry="217.5" fill="none"/></g><g transform="translate(1808 -47)" fill="none" stroke="#f5c507" stroke-width="10"><ellipse cx="230" cy="222.5" rx="230" ry="222.5" stroke="none"/><ellipse cx="230" cy="222.5" rx="225" ry="217.5" fill="none"/></g><g transform="translate(1835 -47)" fill="none" stroke="#f5c507" stroke-width="10"><ellipse cx="230" cy="222.5" rx="230" ry="222.5" stroke="none"/><ellipse cx="230" cy="222.5" rx="225" ry="217.5" fill="none"/></g><g transform="translate(1861 -47)" fill="none" stroke="#f5c507" stroke-width="10"><ellipse cx="230" cy="222.5" rx="230" ry="222.5" stroke="none"/><ellipse cx="230" cy="222.5" rx="225" ry="217.5" fill="none"/></g><g transform="translate(1885 -47)" fill="none" stroke="#f5c507" stroke-width="10"><ellipse cx="230" cy="222.5" rx="230" ry="222.5" stroke="none"/><ellipse cx="230" cy="222.5" rx="225" ry="217.5" fill="none"/></g></g></svg>