<svg xmlns="http://www.w3.org/2000/svg" width="1049.998" height="707.985" viewBox="0 0 1049.998 707.985"><g transform="translate(1000.799 -1763) rotate(90)" opacity="0.4"><g transform="translate(1763 -46)" fill="none" stroke="#f5c507" stroke-width="10"><ellipse cx="230" cy="523.4" rx="230" ry="523.4" stroke="none"/><ellipse cx="230" cy="523.4" rx="225" ry="518.4" fill="none"/></g><g transform="translate(1785 -47)" fill="none" stroke="#f5c507" stroke-width="10"><ellipse cx="230" cy="523.4" rx="230" ry="523.4" stroke="none"/><ellipse cx="230" cy="523.4" rx="225" ry="518.4" fill="none"/></g><g transform="translate(1808 -47)" fill="none" stroke="#f5c507" stroke-width="10"><ellipse cx="230" cy="523.4" rx="230" ry="523.4" stroke="none"/><ellipse cx="230" cy="523.4" rx="225" ry="518.4" fill="none"/></g><g transform="translate(1835 -47)" fill="none" stroke="#f5c507" stroke-width="10"><ellipse cx="230" cy="523.4" rx="230" ry="523.4" stroke="none"/><ellipse cx="230" cy="523.4" rx="225" ry="518.4" fill="none"/></g><g transform="translate(1861 -47)" fill="none" stroke="#f5c507" stroke-width="10"><ellipse cx="230" cy="523.4" rx="230" ry="523.4" stroke="none"/><ellipse cx="230" cy="523.4" rx="225" ry="518.4" fill="none"/></g><g transform="translate(1885 -47)" fill="none" stroke="#f5c507" stroke-width="10"><ellipse cx="230" cy="523.4" rx="230" ry="523.4" stroke="none"/><ellipse cx="230" cy="523.4" rx="225" ry="518.4" fill="none"/></g><g transform="translate(1907.997 -47.401)" fill="none" stroke="#f5c507" stroke-width="10"><ellipse cx="230" cy="523.4" rx="230" ry="523.4" stroke="none"/><ellipse cx="230" cy="523.4" rx="225" ry="518.4" fill="none"/></g><g transform="translate(1932.994 -47.838)" fill="none" stroke="#f5c507" stroke-width="10"><ellipse cx="230" cy="523.4" rx="230" ry="523.4" stroke="none"/><ellipse cx="230" cy="523.4" rx="225" ry="518.4" fill="none"/></g><g transform="translate(1958.991 -48.291)" fill="none" stroke="#f5c507" stroke-width="10"><ellipse cx="230" cy="523.4" rx="230" ry="523.4" stroke="none"/><ellipse cx="230" cy="523.4" rx="225" ry="518.4" fill="none"/></g><g transform="translate(1985.988 -48.762)" fill="none" stroke="#f5c507" stroke-width="10"><ellipse cx="230" cy="523.4" rx="230" ry="523.4" stroke="none"/><ellipse cx="230" cy="523.4" rx="225" ry="518.4" fill="none"/></g><g transform="translate(2010.985 -49.199)" fill="none" stroke="#f5c507" stroke-width="10"><ellipse cx="230" cy="523.4" rx="230" ry="523.4" stroke="none"/><ellipse cx="230" cy="523.4" rx="225" ry="518.4" fill="none"/></g></g></svg>